<?xml version="1.0" encoding="UTF-8"?>
<!DOCTYPE svg PUBLIC "-//W3C//DTD SVG 1.1//EN" "http://www.w3.org/Graphics/SVG/1.1/DTD/svg11.dtd">
<!-- Creator: CorelDRAW -->
<svg xmlns="http://www.w3.org/2000/svg" xml:space="preserve" width="300px" height="50px" version="1.1" style="shape-rendering:geometricPrecision; text-rendering:geometricPrecision; image-rendering:optimizeQuality; fill-rule:evenodd; clip-rule:evenodd"
viewBox="0 0 300 50"
 xmlns:xlink="http://www.w3.org/1999/xlink"
 xmlns:xodm="http://www.corel.com/coreldraw/odm/2003">
 <defs>
  <style type="text/css">
   <![CDATA[
    .str0 {stroke:#373435;stroke-width:2.08;stroke-miterlimit:22.9256}
    .fil0 {fill:none}
    .fil1 {fill:#373435}
    .fil2 {fill:#3E4095;fill-rule:nonzero}
   ]]>
  </style>
 </defs>
 <g id="Layer_x0020_1">
  <metadata id="CorelCorpID_0Corel-Layer"/>
  <rect class="fil0 str0" x="7.15" y="4.24" width="40.32" height="40.32" rx="8.78" ry="8.78"/>
  <circle class="fil0 str0" cx="27.31" cy="24.4" r="8.62"/>
  <circle class="fil1 str0" cx="39.62" cy="12.33" r="3.41"/>
  <g>
   <path class="fil2" d="M87.69 16.58l0 -1.9 0 0 0.11 0 0.11 0 0.1 0 0.1 0.01 0.1 0 0.11 0.01 0.11 0.01 0.1 0 0.1 0.01 0.11 0.02 0.11 0.01 0.1 0.01 0.1 0.02 0.09 0.01 0.1 0.02 0.11 0.02 0.1 0.02 0.09 0.02 0.11 0.02 0.1 0.03 0.09 0.02 0.09 0.03 0.09 0.03 0.1 0.02 0.1 0.04 0.09 0.02 0.09 0.04 0.09 0.03 0.1 0.04 0.09 0.03 0.08 0.04 0.09 0.04 -1.12 1.67 -0.05 -0.02 -0.06 -0.03 -0.05 -0.02 -0.06 -0.02 -0.06 -0.02 -0.05 -0.02 -0.07 -0.02 -0.05 -0.02 -0.05 -0.01 -0.07 -0.02 -0.06 -0.02 -0.07 -0.02 -0.05 -0.01 -0.06 -0.01 -0.07 -0.02 -0.06 -0.01 -0.06 -0.01 -0.06 -0.01 -0.07 -0.01 -0.07 -0.02 -0.07 0 -0.06 -0.01 -0.06 -0.01 -0.07 0 -0.08 -0.01 -0.06 -0.01 -0.07 0 -0.08 0 -0.07 -0.01 -0.08 0 -0.07 0 -0.07 0 0 0zm-2.97 3.29l-2.36 0 0 0 0.01 -0.28 0.01 -0.28 0.03 -0.27 0.03 -0.27 0.04 -0.26 0.05 -0.25 0.06 -0.24 0.07 -0.25 0.08 -0.23 0.1 -0.22 0.1 -0.23 0.12 -0.21 0.13 -0.21 0.14 -0.2 0.15 -0.19 0.17 -0.18 0.18 -0.17 0.19 -0.17 0.21 -0.15 0.22 -0.14 0.22 -0.13 0.24 -0.12 0.25 -0.11 0.25 -0.09 0.26 -0.08 0.28 -0.08 0.27 -0.05 0.28 -0.05 0.29 -0.04 0.29 -0.02 0.3 -0.02 0.31 0 0 1.9 -0.21 0 -0.2 0.01 -0.18 0.02 -0.18 0.02 -0.16 0.03 -0.15 0.03 -0.14 0.04 -0.14 0.04 -0.12 0.05 -0.12 0.05 -0.11 0.05 -0.11 0.06 -0.1 0.07 -0.09 0.07 -0.09 0.07 -0.08 0.09 -0.09 0.09 -0.08 0.1 -0.08 0.1 -0.07 0.12 -0.07 0.13 -0.06 0.13 -0.06 0.15 -0.06 0.16 -0.05 0.16 -0.04 0.18 -0.04 0.18 -0.03 0.2 -0.02 0.21 -0.02 0.22 -0.01 0.22 -0.01 0.24 0 0zm-2.36 3.1l0 -3.1 2.36 0 0 3.1 -1.18 0.96 -1.18 -0.96zm1.18 0.96l-1.18 0 0 -0.96 1.18 0.96zm5.73 0l-5.73 0 0 -1.91 5.73 0 1.18 0.95 -1.18 0.96zm0 -1.91l1.18 0 0 0.95 -1.18 -0.95zm-1.18 3.53l0 -2.58 2.36 0 0 2.58 -1.18 0.95 -1.18 -0.95zm2.36 0l0 0.95 -1.18 0 1.18 -0.95zm-6.91 -0.96l5.73 0 0 1.91 -5.73 0 -1.18 -0.95 1.18 -0.96zm-1.18 0.96l0 -0.96 1.18 0 -1.18 0.96zm0 17.17l0 -17.17 2.36 0 0 17.17 -1.18 0.95 -1.18 -0.95zm2.36 0l0 0.95 -1.18 0 1.18 -0.95zm-4.81 -0.96l3.63 0 0 1.91 -3.63 0 -1.18 -0.95 1.18 -0.96zm0 1.91l-1.18 0 0 -0.95 1.18 0.95zm1.18 -18.12l0 17.17 -2.36 0 0 -17.17 1.18 -0.96 1.18 0.96zm-1.18 -0.96l1.18 0 0 0.96 -1.18 -0.96zm-4.19 0l4.19 0 0 1.91 -4.19 0 -1.18 -0.95 1.18 -0.96zm0 1.91l-1.18 0 0 -0.95 1.18 0.95zm1.18 -3.53l0 2.58 -2.36 0 0 -2.58 1.18 -0.95 1.18 0.95zm-2.36 0l0 -0.95 1.18 0 -1.18 0.95zm5.37 0.96l-4.19 0 0 -1.91 4.19 0 1.18 0.95 -1.18 0.96zm1.18 -0.96l0 0.96 -1.18 0 1.18 -0.96zm0 -3.25l0 3.25 -2.36 0 0 -3.25 0 0 2.36 0zm0.15 -5.54l1.68 1.34 0 0 -0.11 0.09 -0.11 0.1 -0.1 0.1 -0.1 0.09 -0.1 0.11 -0.09 0.1 -0.09 0.11 -0.09 0.1 -0.08 0.11 -0.08 0.12 -0.08 0.11 -0.07 0.12 -0.07 0.12 -0.06 0.12 -0.07 0.13 -0.06 0.13 -0.05 0.13 -0.05 0.13 -0.05 0.14 -0.05 0.14 -0.04 0.14 -0.04 0.15 -0.04 0.15 -0.03 0.15 -0.03 0.15 -0.02 0.16 -0.02 0.16 -0.02 0.16 -0.01 0.17 -0.01 0.16 -0.01 0.18 0 0.17 -2.36 0 0.01 -0.21 0 -0.2 0.01 -0.21 0.02 -0.2 0.02 -0.2 0.03 -0.2 0.03 -0.2 0.03 -0.19 0.04 -0.19 0.05 -0.19 0.05 -0.19 0.05 -0.19 0.06 -0.18 0.07 -0.18 0.07 -0.18 0.07 -0.18 0.09 -0.17 0.08 -0.17 0.09 -0.17 0.1 -0.16 0.1 -0.17 0.11 -0.16 0.11 -0.16 0.11 -0.15 0.12 -0.16 0.13 -0.15 0.13 -0.14 0.14 -0.15 0.14 -0.14 0.15 -0.13 0.15 -0.13 0.15 -0.14 0 0zm6.26 -2.06l0 1.91 0 0 -0.17 0 -0.18 0 -0.17 0.01 -0.16 0.01 -0.17 0.01 -0.17 0.02 -0.16 0.02 -0.16 0.02 -0.16 0.03 -0.15 0.02 -0.15 0.03 -0.15 0.04 -0.15 0.03 -0.14 0.04 -0.15 0.05 -0.14 0.04 -0.14 0.05 -0.14 0.05 -0.13 0.05 -0.14 0.06 -0.13 0.06 -0.13 0.06 -0.13 0.06 -0.13 0.07 -0.13 0.07 -0.12 0.08 -0.13 0.08 -0.12 0.07 -0.12 0.09 -0.13 0.09 -0.11 0.09 -0.12 0.09 -1.68 -1.34 0.16 -0.12 0.16 -0.13 0.16 -0.11 0.17 -0.12 0.17 -0.11 0.17 -0.1 0.17 -0.11 0.18 -0.1 0.18 -0.09 0.18 -0.09 0.18 -0.09 0.19 -0.08 0.19 -0.08 0.2 -0.08 0.19 -0.07 0.19 -0.06 0.2 -0.07 0.2 -0.05 0.21 -0.06 0.2 -0.05 0.21 -0.05 0.21 -0.04 0.21 -0.04 0.21 -0.03 0.22 -0.03 0.22 -0.03 0.21 -0.02 0.22 -0.02 0.23 -0.01 0.22 -0.01 0.22 0 0.23 -0.01 0 0zm3.97 1.3l-2.36 0 0.72 0.87 -0.05 -0.02 -0.03 -0.01 -0.05 -0.01 -0.05 -0.02 -0.04 -0.01 -0.07 -0.01 -0.05 -0.02 -0.05 -0.01 -0.06 -0.01 -0.06 -0.01 -0.05 -0.01 -0.07 -0.01 -0.08 -0.01 -0.06 -0.01 -0.07 -0.01 -0.07 -0.01 -0.07 -0.01 -0.08 -0.01 -0.08 -0.01 -0.08 0 -0.08 -0.01 -0.08 0 -0.09 -0.01 -0.09 -0.01 -0.08 0 -0.09 0 -0.11 -0.01 -0.09 0 -0.09 0 -0.1 0 -0.1 0 -0.11 0 0 -1.91 0.12 0 0.12 0.01 0.12 0 0.12 0 0.11 0 0.11 0.01 0.11 0 0.12 0.01 0.1 0 0.11 0.01 0.11 0.01 0.1 0 0.12 0.01 0.1 0.01 0.09 0.01 0.11 0.02 0.1 0.01 0.1 0.01 0.11 0.02 0.08 0.01 0.1 0.02 0.1 0.02 0.09 0.02 0.09 0.01 0.11 0.03 0.09 0.02 0.07 0.02 0.1 0.02 0.09 0.03 0.08 0.02 0.1 0.03 0.08 0.03 0.71 0.88zm-0.71 -0.88l0.71 0.25 0 0.63 -0.71 -0.88zm-1.65 3.59l0 -2.71 2.36 0 0 2.71 -1.74 0.84 -0.62 -0.84zm2.36 0l0 1.6 -1.74 -0.76 1.74 -0.84z"/>
  </g>
  <circle class="fil0 str0" cx="83.37" cy="25.01" r="20.39"/>
 </g>
</svg>
